<mxfile host="65bd71144e">
    <diagram id="8lWA3Qaki3EhYzqtF1GR" name="Page-1">
        <mxGraphModel dx="835" dy="388" grid="1" gridSize="10" guides="1" tooltips="1" connect="1" arrows="1" fold="1" page="1" pageScale="1" pageWidth="850" pageHeight="1100" math="0" shadow="0">
            <root>
                <mxCell id="0"/>
                <mxCell id="1" parent="0"/>
                <mxCell id="10" value="&lt;p style=&quot;line-height: 120%;&quot;&gt;1 0..*&lt;br&gt;&lt;/p&gt;" style="edgeStyle=none;html=1;entryX=0.5;entryY=0;entryDx=0;entryDy=0;" edge="1" parent="1" source="8" target="9">
                    <mxGeometry relative="1" as="geometry"/>
                </mxCell>
                <mxCell id="14" value="1 0..*" style="edgeStyle=none;html=1;" edge="1" parent="1" source="8" target="13">
                    <mxGeometry relative="1" as="geometry"/>
                </mxCell>
                <mxCell id="8" value="&lt;b&gt;&lt;font style=&quot;font-size: 20px;&quot;&gt;&lt;u&gt;User&lt;/u&gt;&lt;/font&gt;&lt;/b&gt;&lt;br&gt;email&lt;br&gt;password&lt;br&gt;location&lt;br&gt;price&lt;br&gt;photo" style="rounded=0;whiteSpace=wrap;html=1;" vertex="1" parent="1">
                    <mxGeometry x="360" y="200" width="120" height="170" as="geometry"/>
                </mxCell>
                <mxCell id="9" value="&lt;b&gt;&lt;font style=&quot;font-size: 22px;&quot;&gt;&lt;u&gt;Dog&lt;/u&gt;&lt;/font&gt;&lt;/b&gt;&lt;br&gt;id&lt;br&gt;name&lt;br&gt;gender&lt;br&gt;photo&lt;br&gt;age&lt;br&gt;type" style="rounded=0;whiteSpace=wrap;html=1;" vertex="1" parent="1">
                    <mxGeometry x="570" y="335" width="120" height="120" as="geometry"/>
                </mxCell>
                <mxCell id="13" value="&lt;b&gt;&lt;font style=&quot;font-size: 18px;&quot;&gt;&lt;u&gt;Order&lt;/u&gt;&lt;/font&gt;&lt;/b&gt;&lt;br&gt;client_id&lt;br&gt;dogsitter_id&lt;br&gt;dog_id&lt;br&gt;startdate&lt;br&gt;enddate&lt;br&gt;client_rating&lt;br&gt;dogsitter_rating&lt;br&gt;dog_rating&lt;br&gt;value" style="rounded=0;whiteSpace=wrap;html=1;" vertex="1" parent="1">
                    <mxGeometry x="570" y="110" width="120" height="175" as="geometry"/>
                </mxCell>
            </root>
        </mxGraphModel>
    </diagram>
</mxfile>